<svg width="32" height="32" viewBox="0 0 32 32" fill="none" xmlns="http://www.w3.org/2000/svg">
<g clip-path="url(#clip0_1118_919)">
<path d="M16 7.80164C18.6703 7.80164 18.9863 7.81196 20.041 7.85999C21.0159 7.90445 21.5454 8.0672 21.8979 8.20415C22.3328 8.36428 22.7262 8.61998 23.0491 8.9524C23.3815 9.27529 23.6372 9.66868 23.7973 10.1036C23.9343 10.4561 24.097 10.9856 24.1415 11.9605C24.1895 13.0152 24.1998 13.3312 24.1998 16.0015C24.1998 18.6718 24.1895 18.9877 24.1415 20.0424C24.097 21.0174 23.9343 21.5469 23.7973 21.8994C23.6308 22.3305 23.3759 22.7221 23.0491 23.0489C22.7222 23.3758 22.3307 23.6307 21.8995 23.7972C21.547 23.9342 21.0175 24.0969 20.0426 24.1414C18.9882 24.1894 18.6719 24.1997 16.0016 24.1997C13.3313 24.1997 13.0149 24.1894 11.9606 24.1414C10.9857 24.0969 10.4562 23.9342 10.1037 23.7972C9.6688 23.6371 9.27541 23.3814 8.95252 23.0489C8.6201 22.7261 8.3644 22.3327 8.20427 21.8978C8.06732 21.5453 7.90457 21.0158 7.86011 20.0408C7.81208 18.9861 7.80176 18.6702 7.80176 15.9999C7.80176 13.3296 7.81208 13.0136 7.86011 11.9589C7.90457 10.984 8.06732 10.4545 8.20427 10.102C8.3644 9.66709 8.6201 9.2737 8.95252 8.95082C9.27541 8.61839 9.6688 8.36269 10.1037 8.20256C10.4562 8.06561 10.9857 7.90286 11.9606 7.85841C13.0153 7.81037 13.3313 7.80005 16.0016 7.80005L16 7.80164ZM16.0016 5.99829C13.2856 5.99829 12.9451 6.0098 11.8785 6.05863C10.8118 6.10745 10.0858 6.27774 9.44951 6.52505C8.7823 6.7761 8.17786 7.16962 7.67831 7.67819C7.17046 8.17794 6.77762 8.78236 6.52715 9.44939C6.27787 10.0857 6.10876 10.8125 6.06034 11.8767C6.01191 12.941 6 13.2839 6 15.9999C6 18.7158 6.01151 19.0564 6.06034 20.123C6.10916 21.1896 6.27787 21.9141 6.52517 22.5504C6.77622 23.2176 7.16974 23.822 7.67831 24.3216C8.17795 24.8301 8.78236 25.2238 9.44951 25.4751C10.0846 25.722 10.8126 25.8911 11.8769 25.9399C12.9411 25.9888 13.2841 25.9999 16 25.9999C18.7159 25.9999 19.0565 25.9884 20.1231 25.9399C21.1897 25.8915 21.9142 25.722 22.5505 25.4751C23.2148 25.2181 23.8181 24.8252 24.3217 24.3216C24.8253 23.8179 25.2182 23.2147 25.4752 22.5504C25.7221 21.9153 25.8912 21.1872 25.9401 20.123C25.9889 19.0588 26 18.7158 26 15.9999C26 13.2839 25.9885 12.9434 25.9401 11.8767C25.8916 10.8101 25.7221 10.0857 25.4752 9.44939C25.2239 8.78224 24.8302 8.17783 24.3217 7.67819C23.8219 7.17034 23.2175 6.7775 22.5505 6.52703C21.9142 6.27774 21.1874 6.10864 20.1231 6.06022C19.0589 6.01179 18.7159 5.99988 16 5.99988L16.0016 5.99829Z" fill="#282F3D"/>
<path d="M16.0006 10.865C14.9849 10.865 13.992 11.1662 13.1475 11.7305C12.303 12.2948 11.6448 13.0968 11.2561 14.0352C10.8674 14.9736 10.7658 16.0062 10.9639 17.0024C11.1621 17.9985 11.6513 18.9136 12.3695 19.6317C13.0877 20.3499 14.0028 20.839 14.999 21.0371C15.9952 21.2352 17.0277 21.1334 17.9661 20.7447C18.9045 20.3559 19.7065 19.6977 20.2707 18.8531C20.8349 18.0086 21.136 17.0156 21.136 16C21.136 15.3256 21.0032 14.6578 20.7452 14.0347C20.4871 13.4117 20.1088 12.8456 19.6319 12.3687C19.1551 11.8919 18.5889 11.5137 17.9659 11.2556C17.3428 10.9976 16.675 10.8649 16.0006 10.865ZM16.0006 19.3332C15.3411 19.3332 14.6965 19.1376 14.1481 18.7712C13.5998 18.4048 13.1724 17.8841 12.92 17.2748C12.6677 16.6655 12.6016 15.9951 12.7303 15.3483C12.8589 14.7014 13.1765 14.1073 13.6428 13.641C14.1092 13.1747 14.7033 12.8571 15.3501 12.7284C15.9969 12.5998 16.6673 12.6658 17.2766 12.9182C17.8859 13.1706 18.4067 13.5979 18.7731 14.1463C19.1394 14.6946 19.335 15.3393 19.335 15.9988C19.335 16.8831 18.9837 17.7312 18.3584 18.3565C17.7331 18.9819 16.8849 19.3332 16.0006 19.3332Z" fill="#282F3D"/>
<path d="M21.3387 11.8619C22.0014 11.8619 22.5386 11.3246 22.5386 10.6619C22.5386 9.99917 22.0014 9.46191 21.3387 9.46191C20.6759 9.46191 20.1387 9.99917 20.1387 10.6619C20.1387 11.3246 20.6759 11.8619 21.3387 11.8619Z" fill="#282F3D"/>
</g>
<defs>
<clipPath id="clip0_1118_919">
<rect width="20" height="20" fill="white" transform="translate(6 6)"/>
</clipPath>
</defs>
</svg>
