<svg width="240" height="80" viewBox="0 0 240 80" fill="none" xmlns="http://www.w3.org/2000/svg">
<path fill-rule="evenodd" clip-rule="evenodd" d="M0 18.0713C0 8.70955 7.71566 1.09033 17.1959 1.09033C26.6762 1.09033 34.3919 8.70955 34.3919 18.0713C34.3919 27.4331 26.6762 35.0523 17.1959 35.0523C7.71566 35.0523 0 27.4331 0 18.0713ZM7.28363 18.0713C7.28363 23.4673 11.7317 27.8597 17.1959 27.8597V27.8537C22.6663 27.8537 27.1083 23.4552 27.1083 18.0653C27.1083 12.6754 22.6602 8.28292 17.1959 8.28292C11.7317 8.28292 7.28363 12.6754 7.28363 18.0713ZM45.083 2.31613L60.0336 21.7187V2.31613H66.9643V33.8265H60.995L45.5393 13.793V33.8265H38.6147V2.31613H45.083ZM98.0219 6.8168C96.519 5.40473 94.7239 4.30511 92.6429 3.50593C90.5619 2.71276 88.2739 2.31017 85.7852 2.31017H73.3416V33.8266H85.7852C88.2739 33.8266 90.5619 33.424 92.6429 32.6128C94.7239 31.8016 96.519 30.6959 98.0219 29.2839C99.5249 27.8718 100.687 26.2073 101.509 24.2905C102.33 22.3677 102.738 20.3006 102.738 18.0774V17.9872C102.738 15.77 102.33 13.7029 101.509 11.7981C100.687 9.89333 99.5249 8.23489 98.0219 6.82281V6.8168ZM95.3993 18.1615C95.3993 19.5736 95.162 20.8475 94.6935 21.9891C94.2189 23.1308 93.5678 24.1223 92.7342 24.9575C91.8944 25.7987 90.8904 26.4417 89.7039 26.8923C88.5173 27.343 87.2151 27.5653 85.7852 27.5653H80.3636V8.57739H85.7852C87.2151 8.57739 88.5173 8.81174 89.7039 9.27442C90.8904 9.7371 91.9005 10.3921 92.7342 11.2333C93.5678 12.0745 94.225 13.078 94.6935 14.2497C95.162 15.4215 95.3993 16.6953 95.3993 18.0774V18.1615ZM134.154 12.8075C134.154 15.3553 133.521 17.4343 132.262 19.0387H132.255C130.996 20.643 129.347 21.8208 127.308 22.5719L135.103 33.8265H126.901L120.067 23.7436H114.548V33.8265H107.532V2.32208H122.118C125.915 2.32208 128.872 3.23543 130.984 5.06812C133.095 6.89481 134.154 9.44857 134.154 12.7174V12.8075ZM125.647 16.4068C126.578 15.5956 127.041 14.52 127.041 13.168V13.0779C127.041 11.5757 126.554 10.452 125.58 9.70094C124.607 8.94984 123.256 8.57729 121.522 8.57729H114.548V17.6206H121.662C123.39 17.6206 124.722 17.218 125.647 16.4068ZM140.111 27.6614V33.8265H146.36H164.359V27.6614H146.36H140.111ZM140.111 8.48721V2.31613H146.36H164.359V8.48721H146.36H140.111ZM140.111 14.9888V21.1539H146.36H164.359V14.9888H146.36H140.111ZM168.23 33.8205L181.805 2.31613H188.231L201.812 33.8205H194.529L191.632 26.8022H178.233L175.337 33.8205H168.23ZM184.927 10.5843L180.716 20.7272H180.722H189.137L184.927 10.5843ZM230.18 2.31613L221.795 15.6437L213.41 2.31613H205.84V33.8265H212.771V13.3904L221.655 26.712H221.837L230.819 13.2582V33.8265H237.743V2.31613H230.18ZM23.5182 61.5273C24.5404 61.8819 25.441 62.3806 26.2016 63.0055L26.2077 62.9935C26.9683 63.6184 27.5829 64.4416 28.0271 65.4271C28.4652 66.4125 28.6903 67.6323 28.6903 69.0624C28.6903 71.0453 28.2765 72.7158 27.4551 74.0257C26.6397 75.3296 25.5749 76.3872 24.3031 77.1623C23.0374 77.9315 21.5953 78.4843 20.0132 78.7907C18.4373 79.0972 16.8856 79.2534 15.4009 79.2534C13.3564 79.2534 11.4153 78.995 9.63849 78.4903C7.85561 77.9795 6.27962 77.2224 4.93486 76.237C3.59009 75.2515 2.47656 74.0137 1.63075 72.5596C0.778868 71.1054 0.243396 69.3989 0.0243396 67.4881L0 67.2538H3.64486L3.6692 67.434C3.88217 68.9543 4.33245 70.2642 5.00788 71.3338C5.6833 72.4033 6.56561 73.2926 7.63047 73.9716C8.69533 74.6567 9.93665 75.1674 11.3179 75.4979C13.5633 76.0327 16.1189 76.1769 19.0457 75.7443C20.1593 75.582 21.2059 75.2575 22.1551 74.7828C23.0922 74.3141 23.8772 73.6291 24.4857 72.7458C25.0881 71.8686 25.3984 70.7028 25.3984 69.2908C25.3984 67.7946 25.0394 66.6409 24.3214 65.8597C23.5973 65.0726 22.4533 64.4777 20.926 64.0931C20.0437 63.8828 19.1005 63.7326 18.1269 63.6424C17.1412 63.5523 16.1067 63.4562 15.0419 63.348C13.977 63.2399 12.8635 63.0896 11.7378 62.9094C10.6121 62.7231 9.44986 62.4407 8.29981 62.0741C7.30189 61.7677 6.39523 61.3711 5.59203 60.9084C4.78882 60.4457 4.08297 59.8749 3.49882 59.2199C2.90858 58.559 2.45222 57.7898 2.1358 56.9306C1.81939 56.0713 1.66118 55.0558 1.66118 53.9081C1.66118 52.1355 2.03844 50.6213 2.7808 49.4015C3.51707 48.1877 4.50283 47.2022 5.70156 46.4692C6.8942 45.7421 8.25722 45.2133 9.7541 44.8888C12.9487 44.1978 16.411 44.2519 19.4291 45.003C21.0355 45.4056 22.4715 46.0486 23.6946 46.9138C24.9238 47.7851 25.9217 48.9268 26.658 50.3088C27.4003 51.6909 27.808 53.3613 27.8749 55.2781V55.4945H24.3457L24.3335 55.2901C24.2727 53.9562 23.9684 52.7905 23.433 51.8351C22.8914 50.8797 22.1734 50.0745 21.2911 49.4556C20.4027 48.8306 19.3439 48.362 18.1391 48.0675C16.9221 47.7731 15.5956 47.6169 14.2022 47.6169C13.2894 47.6169 12.2854 47.701 11.2206 47.8692C10.1618 48.0315 9.16995 48.3439 8.26938 48.7886C7.3749 49.2272 6.62038 49.8582 6.02406 50.6694C5.43382 51.4685 5.13566 52.5261 5.13566 53.818C5.13566 54.7854 5.30604 55.6086 5.64679 56.2636C5.98755 56.9185 6.45 57.4714 7.02198 57.91C7.60005 58.3547 8.27547 58.6972 9.01783 58.9315C9.77236 59.1719 10.5756 59.3702 11.4031 59.5204C12.0177 59.6466 12.7235 59.7607 13.5024 59.8629C14.2934 59.971 15.0966 60.0732 15.912 60.1633C16.2266 60.2001 16.5359 60.2361 16.8405 60.2715L16.8435 60.2718L16.8505 60.2726C17.3377 60.3293 17.8129 60.3845 18.2791 60.4397C19.0397 60.5359 19.709 60.626 20.2627 60.7161C21.4128 60.9024 22.5081 61.1728 23.5182 61.5273ZM31.3919 61.8397C31.3919 52.478 39.1075 44.8587 48.5878 44.8587C58.0681 44.8587 65.7838 52.478 65.7838 61.8397C65.7838 71.2015 58.0681 78.8207 48.5878 78.8207C39.1075 78.8207 31.3919 71.2015 31.3919 61.8397ZM34.6047 61.8397C34.6047 69.4529 40.8783 75.648 48.5878 75.648C56.2974 75.648 62.5709 69.4529 62.5709 61.8397C62.5709 54.2265 56.2974 48.0314 48.5878 48.0314C40.8783 48.0314 34.6047 54.2265 34.6047 61.8397ZM75.6232 51.871C76.7611 50.6693 78.1606 49.6958 79.7853 48.9928C81.4039 48.2898 83.2172 47.9292 85.1643 47.9292C86.6916 47.9292 88.1703 48.1696 89.5698 48.6443C90.9632 49.119 92.235 49.822 93.3607 50.7414C94.4864 51.6607 95.4417 52.8144 96.2024 54.1724C96.969 55.5364 97.4863 57.1168 97.7418 58.8653L97.7783 59.1057H101.155L101.101 58.6791C100.821 56.5219 100.194 54.569 99.2448 52.8685C98.2895 51.174 97.0968 49.7079 95.6851 48.5181C94.2673 47.3223 92.6366 46.403 90.8355 45.7841C89.0404 45.1652 87.1298 44.8527 85.1704 44.8527C82.706 44.8527 80.4303 45.3034 78.4101 46.1927C76.396 47.076 74.6374 48.2898 73.1831 49.792C71.7289 51.2942 70.591 53.0788 69.7939 55.0858C69.0028 57.0927 68.6012 59.2619 68.6012 61.5273C68.6012 63.9368 68.9967 66.2141 69.7695 68.2992C70.5484 70.3963 71.668 72.247 73.104 73.7913C74.5462 75.3476 76.3108 76.5854 78.3431 77.4687C80.3816 78.358 82.6756 78.8087 85.1643 78.8087C87.0811 78.8087 88.9491 78.4542 90.7259 77.7631C92.4906 77.0721 94.1091 76.0927 95.5269 74.8609C96.9447 73.6291 98.1495 72.1569 99.0988 70.4744C100.054 68.7859 100.663 66.9232 100.912 64.9403L100.961 64.5557H97.7175L97.6871 64.748C97.4315 66.3824 96.9021 67.8846 96.1111 69.2186C95.3139 70.5585 94.3343 71.7243 93.1903 72.6917C92.0464 73.6591 90.7624 74.4162 89.3812 74.945C88.006 75.4738 86.5882 75.7382 85.1582 75.7382C83.1502 75.7382 81.3187 75.3776 79.7183 74.6566C78.1119 73.9415 76.7246 72.938 75.5806 71.6762C74.4366 70.4083 73.5361 68.8941 72.9093 67.1696C72.2826 65.433 71.9601 63.5342 71.9601 61.5212C71.9601 59.6224 72.2826 57.8258 72.9276 56.1674C73.5665 54.5149 74.4671 53.0668 75.611 51.859L75.6232 51.871ZM107.472 46.1566H110.545V77.5228H107.472V46.1566ZM116.514 46.1566V49.1731V60.3255V63.3299V74.4883V77.5228H119.556H139.697V74.4883H119.58V63.36H139.697V60.3255H119.58V49.1911H139.697V46.1566H119.58H116.514ZM154.873 49.1611H143.981L143.987 46.1566H168.832V49.1611H157.916V77.5228H154.873V49.1611ZM198.569 46.1566L187.123 60.2955L175.702 46.1566H175.677H171.893L185.559 63.1196V77.5228H188.681V63.1196L202.354 46.1566H198.569Z" fill="white"/>
</svg>
