<svg width="195" height="20" viewBox="0 0 195 20" fill="none" xmlns="http://www.w3.org/2000/svg">
<path fill-rule="evenodd" clip-rule="evenodd" d="M118.661 9.87429C119.096 10.0269 119.479 10.2416 119.802 10.5106L119.81 10.5003C120.133 10.7693 120.395 11.1237 120.583 11.5479C120.772 11.9721 120.868 12.4972 120.868 13.1129C120.868 13.9665 120.692 14.6856 120.343 15.2495C119.996 15.8109 119.544 16.2661 119.003 16.5998C118.465 16.9309 117.852 17.1689 117.179 17.3008C116.509 17.4327 115.85 17.5 115.219 17.5C114.349 17.5 113.524 17.3888 112.769 17.1715C112.011 16.9516 111.341 16.6257 110.769 16.2015C110.198 15.7772 109.724 15.2444 109.365 14.6184C109.003 13.9924 108.775 13.2577 108.682 12.4352L108.672 12.3343H110.213L110.224 12.4119C110.314 13.0663 110.506 13.6302 110.793 14.0907C111.08 14.5511 111.455 14.934 111.908 15.2263C112.36 15.5211 112.888 15.741 113.475 15.8833C114.43 16.1135 115.513 16.1756 116.76 15.9893C117.234 15.9195 117.679 15.7798 118.082 15.5755C118.48 15.3737 118.814 15.0788 119.073 14.6986C119.329 14.3235 119.461 13.8217 119.461 13.2138C119.461 12.5697 119.308 12.073 119.003 11.7367C118.695 11.3979 118.209 11.1418 117.56 10.9762C117.184 10.8857 116.784 10.821 116.37 10.7822C115.951 10.7434 115.511 10.702 115.058 10.6555C114.605 10.6089 114.132 10.5443 113.654 10.4667C113.175 10.3865 112.681 10.2649 112.192 10.1071C111.768 9.97259 111.382 9.80445 111.041 9.60527C110.7 9.40609 110.399 9.16035 110.151 8.8784C109.9 8.59386 109.706 8.26275 109.572 7.89285C109.437 7.52295 109.37 7.08579 109.37 6.59172C109.37 5.82863 109.53 5.17677 109.846 4.65167C110.159 4.12914 110.578 3.70492 111.088 3.38934C111.595 3.07634 112.174 2.84871 112.81 2.70902C114.168 2.41155 115.64 2.43483 116.923 2.75817C117.606 2.93148 118.217 3.20826 118.737 3.58076C119.259 3.95583 119.683 4.44731 119.996 5.04226C120.312 5.63721 120.485 6.35633 120.514 7.1815V7.27462H119.013L119.008 7.18926C118.982 6.615 118.853 6.11317 118.625 5.70188C118.395 5.29059 118.09 4.94397 117.715 4.67753C117.337 4.40851 116.887 4.20675 116.375 4.08C115.857 3.95325 115.294 3.88599 114.701 3.88599C114.313 3.88599 113.886 3.9222 113.434 3.99463C112.984 4.06448 112.562 4.19899 112.179 4.3904C111.799 4.57924 111.478 4.85084 111.225 5.20005C110.974 5.54409 110.847 5.99936 110.847 6.55551C110.847 6.97197 110.919 7.32635 111.064 7.60831C111.209 7.89026 111.406 8.12824 111.649 8.31707C111.895 8.50849 112.182 8.65594 112.497 8.75682C112.818 8.86029 113.16 8.94565 113.511 9.01032C113.773 9.06464 114.073 9.11379 114.404 9.15777C114.74 9.20433 115.081 9.2483 115.428 9.2871C115.697 9.31697 115.956 9.34837 116.209 9.37894L116.434 9.40609C116.758 9.44748 117.042 9.48628 117.278 9.52508C117.766 9.60527 118.232 9.72167 118.661 9.87429ZM0 10.0088C0 5.97866 3.27999 2.69868 7.31013 2.69868C11.3403 2.69868 14.6203 5.97866 14.6203 10.0088C14.6203 14.0389 11.3403 17.3189 7.31013 17.3189C3.27999 17.3189 0 14.0389 0 10.0088ZM3.09633 10.0088C3.09633 12.3317 4.98723 14.2226 7.31013 14.2226C9.6356 14.2226 11.5239 12.3291 11.5239 10.0088C11.5239 7.6885 9.63302 5.79759 7.31013 5.79759C4.98723 5.79759 3.09633 7.68591 3.09633 10.0088ZM19.1652 3.22896L25.5208 11.5789V3.22896H28.4671V16.7912H25.9295L19.3592 8.16704V16.7912H16.4155V3.22896H19.1652ZM41.6698 5.16643C41.0309 4.55854 40.2678 4.08517 39.3831 3.74113C38.4984 3.39968 37.5258 3.22637 36.4679 3.22637H31.178V16.7912H36.4679C37.5258 16.7912 38.4984 16.6179 39.3831 16.2687C40.2678 15.9195 41.0309 15.4435 41.6698 14.8357C42.3087 14.2278 42.8028 13.5112 43.152 12.6861C43.5012 11.8609 43.6745 10.9685 43.6745 10.0114V9.97259C43.6745 9.01808 43.5012 8.12824 43.152 7.30825C42.8028 6.48825 42.3087 5.77431 41.6698 5.16643ZM40.5549 10.0502C40.5549 10.6581 40.454 11.2065 40.2548 11.6979C40.0531 12.1894 39.7763 12.6162 39.4219 12.9758C39.0649 13.3379 38.6381 13.6147 38.1337 13.8087C37.6293 14.0027 37.0757 14.0984 36.4679 14.0984H34.1631V5.92175H36.4679C37.0757 5.92175 37.6293 6.02264 38.1337 6.22182C38.6381 6.421 39.0675 6.70295 39.4219 7.06509C39.7763 7.42724 40.0557 7.85922 40.2548 8.36364C40.454 8.86805 40.5549 9.41644 40.5549 10.0114V10.0502ZM57.0299 7.74282C57.0299 8.83959 56.7608 9.7346 56.2254 10.4253H56.2228C55.6873 11.1159 54.9863 11.6229 54.1198 11.9463L57.4334 16.7912H53.9465L51.0415 12.4507H48.6954V16.7912H45.7129V3.22896H51.9133C53.5274 3.22896 54.7846 3.62473 55.6822 4.4111C56.5798 5.19746 57.0299 6.29683 57.0299 7.70401V7.74282ZM53.4136 9.29227C53.8094 8.94306 54.006 8.48004 54.006 7.89802V7.85922C54.006 7.21253 53.799 6.72881 53.3851 6.40547C52.9713 6.08472 52.397 5.92175 51.6598 5.92175H48.6954V9.81479H51.7193C52.4539 9.81479 53.0204 9.64148 53.4136 9.29227ZM59.5623 14.1372V16.7912H62.2189H69.8704V14.1372H62.2189H59.5623ZM59.5623 5.88295V3.22637H62.2189H69.8704V5.88295H62.2189H59.5623ZM59.5623 11.3358H62.2189H69.8704V8.6818H62.2189H59.5623V11.3358ZM71.5156 16.7886L77.2866 3.22637H80.0182L85.7918 16.7886H82.6955L81.4642 13.7673H75.7682L74.5369 16.7886H71.5156ZM78.6136 6.78573L76.8236 11.1521H76.8262H80.4036L78.6136 6.78573ZM94.2867 8.96376L90.7221 3.22896H87.5042V16.7912H90.4505V7.99373L94.2272 13.7285H94.3048L98.1228 7.93682V16.7912H101.067V3.22896H97.8512L94.2867 8.96376ZM174.501 4.55078H169.874V3.25741H180.435V4.55078H175.797V16.7602H174.501V4.55078ZM158.195 3.25741V4.55595V9.35694V10.6503V15.4539V16.7602H159.488H168.05V15.4539H159.498V10.6632H168.05V9.35694H159.498V4.56371H168.05V3.25741H159.501H158.195ZM154.351 3.25741H155.657V16.7602H154.351V3.25741ZM193.077 3.25741L188.211 9.34401L183.356 3.25741H183.346H181.737L187.549 10.5598V16.7602H188.873V10.5598L194.686 3.25741H193.077ZM129.319 2.69868C125.289 2.69868 122.009 5.97866 122.009 10.0088C122.009 14.0389 125.289 17.3189 129.319 17.3189C133.349 17.3189 136.629 14.0389 136.629 10.0088C136.629 5.97866 133.352 2.69868 129.319 2.69868ZM129.319 15.9531C126.041 15.9531 123.375 13.2862 123.375 10.0088C123.375 6.7314 126.041 4.06447 129.319 4.06447C132.596 4.06447 135.263 6.7314 135.263 10.0088C135.263 13.2862 132.596 15.9531 129.319 15.9531ZM142.581 4.47835C141.89 4.781 141.295 5.20005 140.812 5.7174L140.809 5.71223C140.323 6.23216 139.94 6.85557 139.668 7.56692C139.394 8.28086 139.257 9.05688 139.257 9.8717C139.257 10.7383 139.394 11.5583 139.661 12.3032C139.927 13.0456 140.31 13.6975 140.796 14.2433C141.283 14.7865 141.872 15.2185 142.555 15.5263C143.236 15.8367 144.014 15.9919 144.868 15.9919C145.476 15.9919 146.078 15.8781 146.663 15.6505C147.25 15.4228 147.796 15.0969 148.282 14.6805C148.769 14.264 149.185 13.7622 149.524 13.1853C149.86 12.6111 150.085 11.9644 150.194 11.2608L150.207 11.178H151.586L151.565 11.3436C151.459 12.1972 151.2 12.9991 150.794 13.7259C150.39 14.4476 149.878 15.084 149.276 15.6143C148.673 16.1445 147.985 16.5662 147.235 16.8637C146.479 17.1611 145.685 17.3138 144.87 17.3138C143.812 17.3138 142.837 17.1197 141.971 16.7369C141.107 16.3567 140.356 15.8238 139.743 15.1538C139.133 14.489 138.657 13.6923 138.326 12.7895C137.997 11.8919 137.829 10.9116 137.829 9.87429C137.829 8.89909 138 7.96528 138.336 7.10131C138.675 6.23733 139.159 5.46907 139.777 4.82239C140.393 4.1757 141.14 3.65318 141.996 3.27293C142.855 2.89009 143.823 2.69609 144.87 2.69609C145.703 2.69609 146.516 2.83319 147.279 3.09703C148.044 3.36347 148.74 3.75924 149.34 4.274C149.94 4.78617 150.447 5.41734 150.853 6.1468C151.257 6.87885 151.523 7.71954 151.642 8.64818L151.666 8.83183H150.23L150.215 8.72836C150.106 7.97562 149.886 7.29531 149.56 6.70812C149.237 6.12352 148.831 5.62686 148.352 5.23109C147.874 4.83532 147.333 4.53267 146.741 4.32832C146.146 4.12397 145.517 4.0205 144.868 4.0205C144.04 4.0205 143.269 4.1757 142.581 4.47835Z" fill="white"/>
</svg>
