<svg width="32" height="32" viewBox="0 0 32 32" fill="none" xmlns="http://www.w3.org/2000/svg">
<path fill-rule="evenodd" clip-rule="evenodd" d="M25.8257 9.17034C26.1686 9.5116 26.4156 9.93707 26.542 10.404C26.9909 12.1183 27 15.6972 27 15.6972C27 15.6972 27 19.2761 26.542 20.9904C26.4145 21.456 26.167 21.8799 25.8242 22.2199C25.4814 22.5598 25.0554 22.8037 24.5887 22.9273C22.8744 23.3871 15.9955 23.3871 15.9955 23.3871C15.9955 23.3871 9.11832 23.3871 7.40402 22.9346C6.93799 22.8093 6.51308 22.5638 6.17186 22.2225C5.83063 21.8813 5.58508 21.4564 5.4598 20.9904C5 19.2761 5 15.6972 5 15.6972C5 15.6972 5 12.1183 5.4598 10.404C5.58508 9.93799 5.83063 9.51308 6.17186 9.17186C6.51308 8.83063 6.93799 8.58508 7.40402 8.4598C9.11651 8 15.9955 8 15.9955 8C15.9955 8 22.8726 8 24.5887 8.4598C25.0563 8.58403 25.4829 8.82908 25.8257 9.17034ZM19.511 15.6972L13.796 12.3989V18.9955L19.511 15.6972Z" fill="#282F3D"/>
</svg>
